<?xml version="1.0" standalone="no"?>
<!DOCTYPE svg PUBLIC "-//W3C//DTD SVG 20010904//EN"
 "http://www.w3.org/TR/2001/REC-SVG-20010904/DTD/svg10.dtd">
<svg version="1.0" xmlns="http://www.w3.org/2000/svg"
 width="1276.000000pt" height="1276.000000pt" viewBox="0 0 1276.000000 1276.000000"
 preserveAspectRatio="xMidYMid meet">
<metadata>
Created by potrace 1.14, written by Peter Selinger 2001-2017
</metadata>
<g transform="translate(0.000000,1276.000000) scale(0.100000,-0.100000)"
fill="#000000" stroke="none">
<path d="M10589 10423 c-1 -22 -1 -496 0 -505 1 -3 294 -6 652 -6 358 0 653
-3 655 -5 3 -3 -21 -29 -52 -58 -118 -111 -172 -168 -249 -264 -60 -75 -79
-97 -95 -115 -8 -9 -53 -63 -99 -121 -47 -57 -92 -112 -100 -121 -9 -9 -20
-23 -26 -30 -16 -21 -99 -122 -110 -134 -5 -6 -23 -28 -40 -49 -16 -21 -35
-43 -40 -49 -24 -25 -43 -64 -36 -72 4 -5 18 -34 30 -64 13 -30 34 -79 47
-108 13 -29 24 -56 24 -61 0 -5 6 -20 13 -33 11 -22 18 -24 80 -24 37 1 67 -3
67 -8 0 -5 6 -4 13 1 6 5 32 8 57 7 72 -3 224 -13 240 -17 8 -2 31 -7 50 -11
53 -11 165 -50 168 -58 2 -5 10 -8 17 -8 17 0 88 -44 132 -81 43 -36 98 -116
113 -164 7 -22 15 -44 19 -50 15 -26 20 -164 9 -227 -11 -57 -47 -148 -60
-148 -4 0 -8 -6 -8 -13 0 -22 -127 -147 -149 -147 -4 0 -16 -9 -26 -20 -10
-11 -21 -17 -26 -15 -4 3 -10 1 -14 -4 -7 -13 -165 -62 -175 -56 -5 3 -11 2
-14 -3 -8 -13 -206 -12 -274 3 -34 7 -62 10 -62 7 0 -3 -5 -1 -12 6 -7 7 -20
12 -30 12 -21 0 -192 72 -268 113 -84 46 -161 101 -205 146 -21 23 -43 41 -47
41 -4 0 -49 -64 -100 -142 -51 -79 -121 -185 -154 -237 l-62 -94 42 -36 c23
-20 55 -49 72 -64 70 -67 292 -197 394 -232 13 -4 47 -18 65 -25 23 -10 58
-20 65 -19 3 0 28 -8 56 -20 29 -11 54 -17 57 -15 3 3 14 1 25 -5 10 -5 41
-12 68 -15 27 -3 49 -5 49 -6 0 -7 116 -13 230 -13 165 0 235 5 235 16 0 5 4
6 9 2 13 -8 131 20 221 53 153 55 301 151 411 267 92 96 129 139 129 153 0 6
4 12 9 12 5 0 15 12 23 28 7 15 27 52 43 82 16 30 30 60 32 65 1 6 14 42 27
80 13 39 27 86 31 105 3 19 9 51 13 70 12 60 7 331 -7 390 -29 125 -81 247
-142 337 -48 72 -195 212 -274 264 -135 88 -301 153 -447 176 -21 3 -38 7 -38
9 0 4 26 34 75 90 11 12 33 38 48 58 16 19 45 53 65 75 20 21 46 50 56 63 27
33 118 139 136 159 8 9 35 40 60 69 25 29 50 57 55 64 6 6 35 40 65 76 30 35
62 72 70 81 38 41 127 144 140 163 8 12 23 28 35 37 18 16 20 29 20 213 l0
196 -1037 0 c-982 0 -1038 -1 -1039 -17z"/>
<path d="M5 9332 c-2 -2 12 -29 30 -60 81 -140 145 -255 150 -273 4 -10 11
-19 16 -19 5 0 9 -9 9 -20 0 -11 5 -20 10 -20 6 0 10 -4 10 -9 0 -5 23 -49 51
-98 28 -48 55 -97 60 -108 5 -11 13 -27 19 -35 15 -23 69 -117 108 -190 44
-82 59 -109 138 -246 35 -61 64 -116 64 -123 0 -6 5 -11 10 -11 6 0 10 -4 10
-9 0 -5 23 -48 50 -96 28 -48 50 -88 50 -90 0 -2 34 -62 75 -134 41 -72 75
-133 75 -136 0 -2 20 -38 45 -78 25 -41 45 -77 45 -81 0 -3 18 -35 40 -71 22
-36 36 -65 32 -65 -4 0 -2 -4 4 -8 5 -4 26 -36 46 -72 70 -128 91 -165 121
-214 16 -28 33 -60 38 -71 5 -11 22 -42 39 -70 17 -27 38 -66 48 -85 9 -19 20
-36 25 -38 4 -2 7 -8 7 -14 0 -5 9 -22 19 -37 11 -15 21 -34 23 -42 2 -8 6
-16 9 -19 3 -3 20 -32 38 -65 39 -71 106 -190 127 -225 8 -14 18 -33 21 -42 3
-10 9 -18 14 -18 5 0 9 -6 9 -14 0 -7 11 -30 25 -50 13 -20 22 -36 19 -36 -3
0 4 -12 15 -26 12 -15 21 -32 21 -40 0 -7 3 -14 7 -16 5 -1 19 -25 33 -53 14
-27 28 -52 31 -55 7 -5 72 -125 98 -177 8 -18 19 -33 23 -33 4 0 8 -5 8 -11 0
-6 40 -82 90 -170 49 -87 90 -163 90 -169 0 -5 4 -10 9 -10 5 0 11 -8 14 -17
3 -10 22 -47 43 -83 20 -36 46 -83 58 -105 11 -22 23 -42 26 -45 3 -3 12 -18
20 -35 8 -16 17 -32 20 -35 3 -3 11 -16 17 -30 7 -14 25 -47 41 -75 16 -27 42
-72 57 -100 15 -27 44 -79 65 -115 20 -36 39 -72 43 -80 4 -8 13 -24 20 -35 7
-11 41 -72 77 -135 35 -63 72 -128 81 -145 10 -16 26 -47 36 -67 10 -21 21
-38 25 -38 5 0 8 -5 8 -10 0 -6 27 -58 60 -117 33 -58 60 -109 60 -114 0 -5 5
-9 11 -9 5 0 8 -4 4 -9 -3 -5 -1 -12 4 -15 5 -4 27 -39 49 -79 40 -74 66 -121
133 -240 22 -38 39 -73 39 -78 0 -5 4 -9 9 -9 5 0 11 -6 13 -13 2 -7 48 -93
103 -191 55 -98 112 -199 126 -224 34 -63 78 -140 99 -177 10 -16 30 -52 45
-80 47 -84 108 -194 142 -253 18 -32 40 -73 50 -92 9 -19 19 -37 22 -40 4 -3
11 -14 17 -25 35 -64 100 -184 111 -207 17 -33 35 -46 41 -30 6 18 22 14 22
-5 0 -10 29 33 65 96 36 63 65 116 65 117 0 2 14 26 30 54 28 47 67 119 116
210 11 19 21 37 24 40 3 3 13 21 24 40 31 59 72 133 96 175 13 22 36 63 50 90
15 28 50 90 78 138 28 49 54 97 57 108 4 10 11 19 16 19 5 0 9 9 9 20 0 11 4
20 8 20 5 0 19 21 32 48 13 26 31 59 41 73 10 14 16 29 12 33 -3 3 -1 6 5 6 7
0 12 4 12 9 0 5 27 56 60 114 33 59 60 109 60 113 0 4 6 15 14 23 7 9 28 43
46 76 34 62 137 247 155 277 5 9 28 51 50 92 21 42 43 76 47 76 4 0 8 9 8 19
0 11 4 22 9 26 6 3 16 18 24 33 7 15 26 50 42 77 15 28 70 124 120 215 51 91
103 183 115 205 13 22 33 58 44 80 12 22 23 42 26 45 3 3 14 24 25 47 11 24
23 43 28 43 4 0 7 4 7 9 0 5 29 61 65 125 36 63 65 118 65 122 -1 4 2 10 7 13
7 5 126 214 207 366 6 11 13 22 16 25 6 6 30 50 74 135 17 33 33 62 36 65 5 4
111 193 198 350 13 25 32 59 42 75 19 33 56 99 103 185 16 30 47 84 67 120 21
36 49 85 63 110 14 25 39 70 56 100 18 30 35 63 38 73 3 9 9 17 14 17 5 0 9 6
9 13 0 7 14 35 31 62 l30 48 18 -29 c10 -16 37 -65 61 -109 24 -44 52 -92 62
-107 11 -16 16 -28 11 -28 -4 0 -3 -4 3 -8 9 -6 38 -56 110 -192 11 -19 21
-37 24 -40 3 -3 13 -21 24 -40 27 -52 76 -141 96 -175 19 -33 57 -100 103
-185 16 -30 33 -60 38 -65 4 -6 21 -35 37 -65 16 -30 38 -71 49 -90 11 -19 35
-62 53 -95 18 -33 44 -77 57 -97 13 -21 20 -38 16 -38 -5 0 -3 -4 2 -8 9 -6
20 -25 69 -117 6 -11 13 -22 16 -25 6 -6 68 -122 85 -157 5 -13 13 -23 18 -23
4 0 7 -5 7 -11 0 -6 9 -24 21 -40 11 -16 17 -29 13 -29 -4 0 -1 -8 7 -17 8
-10 19 -27 25 -39 11 -18 119 -212 171 -304 11 -19 35 -62 53 -95 18 -33 42
-76 53 -95 11 -19 31 -55 45 -80 13 -25 32 -58 42 -75 10 -16 29 -51 44 -77
14 -27 38 -69 52 -95 15 -27 34 -61 44 -78 10 -16 29 -51 44 -77 61 -111 80
-146 112 -201 19 -32 34 -59 34 -61 0 -1 32 -58 70 -125 39 -68 70 -127 70
-132 0 -5 4 -9 8 -9 4 0 13 -12 19 -28 7 -15 30 -58 52 -97 23 -38 46 -82 52
-97 6 -16 15 -28 19 -28 5 0 12 -10 16 -22 10 -31 146 -272 156 -276 4 -2 8
-10 8 -17 0 -7 25 -55 55 -106 30 -52 55 -100 55 -106 0 -7 3 -13 8 -13 4 0
12 -10 17 -23 15 -31 59 -111 65 -117 5 -5 28 -46 80 -142 14 -26 47 -87 75
-135 27 -48 56 -101 64 -118 9 -16 18 -32 21 -35 8 -8 59 -100 82 -149 l20
-44 29 47 c16 25 29 50 29 56 0 5 5 10 11 10 5 0 8 3 5 8 -2 4 9 26 25 50 16
23 29 44 29 46 0 3 52 98 97 176 11 19 37 67 58 105 21 39 41 72 44 75 3 3 7
12 9 20 2 8 11 23 19 33 9 9 12 17 7 17 -5 0 -4 4 2 8 5 4 26 36 46 72 76 138
94 170 185 329 51 89 93 164 93 166 0 1 63 114 141 251 78 137 157 278 176
313 19 35 44 78 54 95 10 17 22 38 26 46 3 8 15 27 25 43 11 15 16 27 12 27
-4 0 0 8 8 18 8 9 35 53 58 97 24 44 61 109 82 144 21 35 41 74 44 87 3 13 10
24 14 24 4 0 13 13 20 30 10 25 9 34 -8 62 -11 18 -32 56 -47 83 -97 176 -193
346 -205 365 -6 8 -18 31 -28 50 -9 19 -19 37 -23 40 -3 3 -13 21 -23 40 -19
38 -22 44 -151 270 -48 85 -96 172 -106 192 -11 20 -23 40 -29 43 -6 4 -8 11
-5 16 4 5 2 9 -3 9 -5 0 -12 8 -15 18 -3 9 -22 44 -41 77 -20 33 -41 71 -48
85 -7 14 -34 62 -60 108 -27 46 -48 88 -48 93 0 5 -4 9 -10 9 -5 0 -10 4 -10
9 0 5 -18 41 -40 80 -22 38 -49 87 -61 108 -12 21 -33 58 -47 83 -14 25 -43
77 -65 115 -23 39 -51 88 -62 110 -42 80 -88 161 -107 188 -11 15 -16 27 -11
27 4 0 -1 7 -11 15 -11 8 -17 15 -13 15 5 0 -75 147 -142 260 -11 19 -29 51
-39 70 -10 19 -61 109 -112 200 -52 91 -106 188 -121 215 -14 28 -39 73 -56
100 -16 28 -32 57 -36 65 -4 8 -18 33 -30 55 -13 22 -36 63 -52 90 -15 28 -43
76 -61 108 -19 32 -34 62 -34 68 0 5 -4 9 -8 9 -4 0 -13 12 -19 28 -7 15 -26
52 -43 82 -35 60 -166 293 -184 325 -6 11 -17 28 -25 38 -8 9 -11 17 -7 17 4
0 -1 12 -12 28 -10 15 -32 52 -49 82 -17 30 -40 73 -53 95 -13 22 -34 60 -48
85 -14 25 -44 79 -68 121 -24 42 -44 81 -44 87 0 7 -3 12 -8 12 -4 0 -13 14
-20 30 -8 17 -19 36 -26 43 -10 10 -330 12 -1509 12 -822 0 -1497 -2 -1500 -5
-3 -3 -18 -29 -33 -57 -101 -185 -188 -339 -193 -343 -3 -3 -15 -23 -26 -45
-11 -22 -39 -73 -62 -113 -24 -40 -43 -76 -43 -81 0 -5 -7 -14 -15 -21 -8 -7
-12 -16 -9 -21 3 -5 0 -9 -5 -9 -6 0 -11 -4 -11 -9 0 -5 -22 -48 -50 -96 -27
-48 -50 -89 -50 -92 0 -3 -8 -17 -18 -31 -11 -15 -36 -58 -56 -95 -20 -37 -46
-84 -58 -105 -133 -236 -238 -427 -238 -434 0 -4 -5 -8 -11 -8 -5 0 -7 -4 -4
-10 3 -5 2 -10 -3 -10 -5 0 -12 -8 -15 -17 -8 -25 -50 -97 -62 -105 -5 -4 -6
-8 -1 -8 5 0 3 -8 -5 -17 -8 -10 -24 -36 -36 -58 -29 -56 -62 -115 -84 -150
-11 -16 -22 -37 -26 -45 -4 -8 -27 -51 -52 -95 -26 -44 -52 -93 -60 -108 -18
-33 -24 -28 -71 58 -19 33 -41 74 -50 90 -10 17 -26 46 -36 65 -11 19 -21 37
-24 40 -3 3 -13 21 -24 40 -41 78 -89 166 -96 175 -6 8 -31 52 -84 150 -6 11
-13 22 -16 25 -3 3 -13 21 -22 40 -15 30 -49 93 -99 180 -8 14 -16 27 -19 30
-3 3 -16 27 -30 53 -14 27 -29 56 -35 65 -5 10 -28 49 -49 87 -22 39 -48 86
-59 105 -11 19 -43 76 -70 125 -28 50 -59 104 -69 120 -10 17 -23 42 -29 58
-6 15 -15 27 -20 27 -5 0 -9 6 -9 13 0 6 -10 28 -22 47 -12 19 -22 37 -23 40
0 3 -19 37 -42 75 -22 39 -42 75 -43 80 -1 6 -7 17 -15 25 -7 8 -27 42 -45 75
-17 33 -39 73 -48 89 -10 16 -40 70 -69 120 l-51 91 -1352 0 c-743 0 -1353 -1
-1355 -3z"/>
</g>
</svg>
